<svg xmlns="http://www.w3.org/2000/svg" viewBox="0 0 1400 1120" role="img" aria-labelledby="title desc">
  <title id="title">VideoCaddy Role and Scope</title>
  <desc id="desc">Original editorial graphic showing concept, capture, field production, and editorial direction.</desc>
  <rect width="1400" height="1120" fill="#11140f"/>
  <g fill="#1c1917" stroke="#4a3829" stroke-width="5">
    <rect x="110" y="180" width="250" height="180" rx="32"/>
    <rect x="420" y="130" width="250" height="180" rx="32"/>
    <rect x="730" y="130" width="250" height="180" rx="32"/>
    <rect x="1040" y="180" width="250" height="180" rx="32"/>
  </g>
  <path d="M360 270h60M670 220h60M980 220h60" stroke="#fbbf24" stroke-width="10" stroke-linecap="round"/>
  <path d="M220 560C440 455 660 450 880 545s315 48 420-70" stroke="#86efac" stroke-width="14" fill="none" opacity=".38"/>
  <path d="M260 270h76M503 220h84M808 220h94M1110 270h88" stroke="#fff7ed" stroke-width="14" stroke-linecap="round" opacity=".23"/>
  <circle cx="700" cy="610" r="76" fill="#fbbf24" opacity=".14"/>
  <path d="M668 610h64M700 578v64" stroke="#fff7ed" stroke-width="10" stroke-linecap="round" opacity=".48"/>
  <text x="120" y="1010" fill="#fff7ed" font-family="system-ui, sans-serif" font-size="58" font-weight="800">Concept to capture to edit</text>
</svg>
