<svg xmlns="http://www.w3.org/2000/svg" viewBox="0 0 1400 1120" role="img" aria-labelledby="title desc">
  <title id="title">VideoCaddy Why It Mattered</title>
  <desc id="desc">Original editorial graphic showing Radiant as a media property built from repeatable production standards.</desc>
  <rect width="1400" height="1120" fill="#10130f"/>
  <path d="M100 800C300 620 495 570 700 640s395 30 600-170v650H100Z" fill="#86efac" opacity=".13"/>
  <circle cx="700" cy="410" r="170" fill="#1c1917" stroke="#4a3829" stroke-width="5"/>
  <circle cx="700" cy="410" r="82" fill="#fbbf24" opacity=".17"/>
  <path d="M700 240v-90M700 580v100M530 410H390M870 410h140M580 290l-90-80M820 290l90-80M580 530l-90 80M820 530l90 80" stroke="#fbbf24" stroke-width="9" stroke-linecap="round" opacity=".68"/>
  <g fill="#1c1917" stroke="#4a3829" stroke-width="4">
    <rect x="300" y="100" width="180" height="100" rx="22"/>
    <rect x="920" y="100" width="180" height="100" rx="22"/>
    <rect x="260" y="600" width="210" height="110" rx="22"/>
    <rect x="930" y="600" width="210" height="110" rx="22"/>
  </g>
  <path d="M340 150h96M960 150h96M305 655h118M975 655h118" stroke="#fff7ed" stroke-width="12" stroke-linecap="round" opacity=".22"/>
  <text x="120" y="1010" fill="#fff7ed" font-family="system-ui, sans-serif" font-size="58" font-weight="800">A media property that can compound</text>
</svg>
