<svg xmlns="http://www.w3.org/2000/svg" viewBox="0 0 1200 600" width="1200" height="600" role="img" aria-labelledby="title desc">
  <title id="title">React Naming Conventions</title>
  <desc id="desc">Abstract engineering cover with bracketed labels and branching code markers for React naming conventions.</desc>
  <defs>
    <linearGradient id="grad-best-practices-naming-conventions-in-react-code-development" x1="0%" y1="0%" x2="100%" y2="100%">
      <stop offset="0%" stop-color="#0f172a" />
      <stop offset="100%" stop-color="#1e293b" />
    </linearGradient>
  </defs>
  <rect width="1200" height="600" fill="url(#grad-best-practices-naming-conventions-in-react-code-development)"/>
  <circle cx="130" cy="110" r="170" fill="#38bdf8" opacity="0.08"/>
  <circle cx="1050" cy="490" r="210" fill="#22c55e" opacity="0.08"/>
  <rect x="84" y="80" width="236" height="42" rx="21" fill="#0b1220" opacity="0.88"/>
  <text x="202" y="107" font-family="system-ui, -apple-system, sans-serif" font-size="20" font-weight="700" text-anchor="middle" fill="#e2e8f0" opacity="0.88">Engineering Essay</text>
  
      <g opacity="0.9">
        <path d="M230 170h170" stroke="#38bdf8" stroke-width="7" stroke-linecap="round"/>
        <path d="M230 250h250" stroke="#38bdf8" stroke-width="7" stroke-linecap="round" opacity="0.7"/>
        <path d="M230 330h210" stroke="#38bdf8" stroke-width="7" stroke-linecap="round" opacity="0.55"/>
        <path d="M180 130v240m0 0c0 24-18 44-42 44m42-284c0-24-18-44-42-44" stroke="#38bdf8" stroke-width="7" fill="none" stroke-linecap="round"/>
        <path d="M810 130v240m0 0c0 24 18 44 42 44m-42-284c0-24 18-44 42-44" stroke="#22c55e" stroke-width="7" fill="none" stroke-linecap="round"/>
        <rect x="560" y="152" width="200" height="56" rx="18" fill="#22c55e" opacity="0.2"/>
        <rect x="520" y="236" width="240" height="56" rx="18" fill="#38bdf8" opacity="0.14"/>
        <rect x="590" y="320" width="170" height="56" rx="18" fill="#22c55e" opacity="0.16"/>
      </g>
    
  <g>
    <text x="88" y="472" font-family="system-ui, -apple-system, sans-serif" font-size="56" font-weight="800" fill="#e2e8f0">React Naming Conventions</text>
    <text x="88" y="522" font-family="system-ui, -apple-system, sans-serif" font-size="28" font-weight="500" fill="#e2e8f0" opacity="0.84">Readable systems start with consistent language</text>
  </g>
</svg>