<svg xmlns="http://www.w3.org/2000/svg" viewBox="0 0 1200 600" width="1200" height="600" role="img" aria-labelledby="title desc">
  <title id="title">Location Privacy</title>
  <desc id="desc">Abstract cross-disciplinary cover with a cell tower and location rings for a location privacy essay.</desc>
  <defs>
    <linearGradient id="grad-cell-network-location-privacy-calea-carpenter-united-states" x1="0%" y1="0%" x2="100%" y2="100%">
      <stop offset="0%" stop-color="#142032" />
      <stop offset="100%" stop-color="#111827" />
    </linearGradient>
  </defs>
  <rect width="1200" height="600" fill="url(#grad-cell-network-location-privacy-calea-carpenter-united-states)"/>
  <circle cx="130" cy="110" r="170" fill="#22d3ee" opacity="0.08"/>
  <circle cx="1050" cy="490" r="210" fill="#a78bfa" opacity="0.08"/>
  <rect x="84" y="80" width="236" height="42" rx="21" fill="#102033" opacity="0.88"/>
  <text x="202" y="107" font-family="system-ui, -apple-system, sans-serif" font-size="20" font-weight="700" text-anchor="middle" fill="#ecfeff" opacity="0.88">Bridge Essay</text>
  
      <g opacity="0.92">
        <path d="M600 160L546 360H654L600 160Z" fill="#22d3ee" opacity="0.25"/>
        <line x1="600" y1="180" x2="600" y2="410" stroke="#22d3ee" stroke-width="8" stroke-linecap="round" opacity="0.7"/>
        <path d="M600 220C690 220 760 290 760 380" stroke="#a78bfa" stroke-width="8" fill="none" stroke-linecap="round" opacity="0.5"/>
        <path d="M600 178C748 178 870 300 870 448" stroke="#a78bfa" stroke-width="8" fill="none" stroke-linecap="round" opacity="0.32"/>
        <path d="M600 220C510 220 440 290 440 380" stroke="#a78bfa" stroke-width="8" fill="none" stroke-linecap="round" opacity="0.5"/>
        <path d="M600 178C452 178 330 300 330 448" stroke="#a78bfa" stroke-width="8" fill="none" stroke-linecap="round" opacity="0.32"/>
      </g>
    
  <g>
    <text x="88" y="472" font-family="system-ui, -apple-system, sans-serif" font-size="56" font-weight="800" fill="#ecfeff">Location Privacy</text>
    <text x="88" y="522" font-family="system-ui, -apple-system, sans-serif" font-size="28" font-weight="500" fill="#ecfeff" opacity="0.84">Cell records, tracking, and constitutional stakes</text>
  </g>
</svg>