<svg xmlns="http://www.w3.org/2000/svg" viewBox="0 0 1200 600" width="1200" height="600" role="img" aria-labelledby="title desc">
  <title id="title">Chrome Lighthouse</title>
  <desc id="desc">Abstract cross-disciplinary cover with a lighthouse beam and performance bars for the site performance essay.</desc>
  <defs>
    <linearGradient id="grad-how-use-chrome-lighthouse-improve-site-performance-page-speed" x1="0%" y1="0%" x2="100%" y2="100%">
      <stop offset="0%" stop-color="#142032" />
      <stop offset="100%" stop-color="#111827" />
    </linearGradient>
  </defs>
  <rect width="1200" height="600" fill="url(#grad-how-use-chrome-lighthouse-improve-site-performance-page-speed)"/>
  <circle cx="130" cy="110" r="170" fill="#22d3ee" opacity="0.08"/>
  <circle cx="1050" cy="490" r="210" fill="#a78bfa" opacity="0.08"/>
  <rect x="84" y="80" width="236" height="42" rx="21" fill="#102033" opacity="0.88"/>
  <text x="202" y="107" font-family="system-ui, -apple-system, sans-serif" font-size="20" font-weight="700" text-anchor="middle" fill="#ecfeff" opacity="0.88">Bridge Essay</text>
  
      <g opacity="0.92">
        <rect x="300" y="220" width="60" height="150" rx="22" fill="#22d3ee" opacity="0.45"/>
        <rect x="332" y="160" width="136" height="40" rx="20" fill="#a78bfa" opacity="0.25" transform="rotate(-22 400 180)"/>
        <rect x="412" y="132" width="220" height="44" rx="22" fill="#22d3ee" opacity="0.22" transform="rotate(-14 522 154)"/>
        <rect x="710" y="300" width="46" height="90" rx="12" fill="#a78bfa" opacity="0.4"/>
        <rect x="776" y="250" width="46" height="140" rx="12" fill="#22d3ee" opacity="0.55"/>
        <rect x="842" y="214" width="46" height="176" rx="12" fill="#a78bfa" opacity="0.68"/>
      </g>
    
  <g>
    <text x="88" y="472" font-family="system-ui, -apple-system, sans-serif" font-size="56" font-weight="800" fill="#ecfeff">Chrome Lighthouse</text>
    <text x="88" y="522" font-family="system-ui, -apple-system, sans-serif" font-size="28" font-weight="500" fill="#ecfeff" opacity="0.84">Performance diagnostics and site speed</text>
  </g>
</svg>