<svg xmlns="http://www.w3.org/2000/svg" viewBox="0 0 1200 600" width="1200" height="600" role="img" aria-labelledby="title desc">
  <title id="title">ChatGPT Rules Pt. 2</title>
  <desc id="desc">Abstract engineering cover with structured prompt cards and directional guides for AI copilot control.</desc>
  <defs>
    <linearGradient id="grad-working-with-chatgpt-generative-ai-copilot-interaction-rules-part-2" x1="0%" y1="0%" x2="100%" y2="100%">
      <stop offset="0%" stop-color="#0f172a" />
      <stop offset="100%" stop-color="#1e293b" />
    </linearGradient>
  </defs>
  <rect width="1200" height="600" fill="url(#grad-working-with-chatgpt-generative-ai-copilot-interaction-rules-part-2)"/>
  <circle cx="130" cy="110" r="170" fill="#38bdf8" opacity="0.08"/>
  <circle cx="1050" cy="490" r="210" fill="#22c55e" opacity="0.08"/>
  <rect x="84" y="80" width="236" height="42" rx="21" fill="#0b1220" opacity="0.88"/>
  <text x="202" y="107" font-family="system-ui, -apple-system, sans-serif" font-size="20" font-weight="700" text-anchor="middle" fill="#e2e8f0" opacity="0.88">Engineering Essay</text>
  
      <g opacity="0.9">
        <rect x="170" y="120" width="220" height="300" rx="24" fill="none" stroke="#38bdf8" stroke-width="5" opacity="0.5"/>
        <rect x="450" y="120" width="300" height="300" rx="24" fill="none" stroke="#22c55e" stroke-width="5" opacity="0.45"/>
        <rect x="810" y="120" width="120" height="300" rx="24" fill="none" stroke="#38bdf8" stroke-width="5" opacity="0.35"/>
        <line x1="205" y1="185" x2="355" y2="185" stroke="#38bdf8" stroke-width="6" opacity="0.7"/>
        <line x1="205" y1="235" x2="325" y2="235" stroke="#38bdf8" stroke-width="6" opacity="0.55"/>
        <line x1="485" y1="185" x2="705" y2="185" stroke="#22c55e" stroke-width="6" opacity="0.7"/>
        <line x1="485" y1="235" x2="655" y2="235" stroke="#22c55e" stroke-width="6" opacity="0.55"/>
        <path d="M392 270H448" stroke="#38bdf8" stroke-width="8" stroke-linecap="round"/>
        <path d="M732 270H790" stroke="#22c55e" stroke-width="8" stroke-linecap="round"/>
        <path d="M430 240L448 270L430 300" stroke="#38bdf8" stroke-width="8" fill="none" stroke-linecap="round" stroke-linejoin="round"/>
        <path d="M770 240L790 270L770 300" stroke="#22c55e" stroke-width="8" fill="none" stroke-linecap="round" stroke-linejoin="round"/>
      </g>
    
  <g>
    <text x="88" y="472" font-family="system-ui, -apple-system, sans-serif" font-size="56" font-weight="800" fill="#e2e8f0">ChatGPT Rules Pt. 2</text>
    <text x="88" y="522" font-family="system-ui, -apple-system, sans-serif" font-size="28" font-weight="500" fill="#e2e8f0" opacity="0.84">Prompt structure and control</text>
  </g>
</svg>