<svg xmlns="http://www.w3.org/2000/svg" viewBox="0 0 1200 600" width="1200" height="600" role="img" aria-labelledby="title desc">
  <title id="title">ChatGPT Rules Pt. 3</title>
  <desc id="desc">Abstract engineering cover with layered chat panels and signal lines representing AI copilot interaction rules.</desc>
  <defs>
    <linearGradient id="grad-working-with-chatgpt-generative-ai-copilot-interaction-rules-part-3" x1="0%" y1="0%" x2="100%" y2="100%">
      <stop offset="0%" stop-color="#0f172a" />
      <stop offset="100%" stop-color="#1e293b" />
    </linearGradient>
  </defs>
  <rect width="1200" height="600" fill="url(#grad-working-with-chatgpt-generative-ai-copilot-interaction-rules-part-3)"/>
  <circle cx="130" cy="110" r="170" fill="#38bdf8" opacity="0.08"/>
  <circle cx="1050" cy="490" r="210" fill="#22c55e" opacity="0.08"/>
  <rect x="84" y="80" width="236" height="42" rx="21" fill="#0b1220" opacity="0.88"/>
  <text x="202" y="107" font-family="system-ui, -apple-system, sans-serif" font-size="20" font-weight="700" text-anchor="middle" fill="#e2e8f0" opacity="0.88">Engineering Essay</text>
  
      <g opacity="0.85">
        <rect x="140" y="120" width="280" height="116" rx="28" fill="#38bdf8" opacity="0.18"/>
        <rect x="350" y="180" width="320" height="132" rx="28" fill="#22c55e" opacity="0.16"/>
        <rect x="620" y="118" width="280" height="116" rx="28" fill="#38bdf8" opacity="0.18"/>
        <path d="M230 236L276 278L320 236" stroke="#38bdf8" stroke-width="7" fill="none" stroke-linecap="round" stroke-linejoin="round" opacity="0.75"/>
        <path d="M702 236L748 278L792 236" stroke="#22c55e" stroke-width="7" fill="none" stroke-linecap="round" stroke-linejoin="round" opacity="0.78"/>
        <path d="M420 160C500 108 604 108 684 160" stroke="#38bdf8" stroke-width="8" fill="none" stroke-linecap="round" opacity="0.55"/>
        <path d="M390 340C478 388 616 388 704 340" stroke="#22c55e" stroke-width="8" fill="none" stroke-linecap="round" opacity="0.55"/>
      </g>
    
  <g>
    <text x="88" y="472" font-family="system-ui, -apple-system, sans-serif" font-size="56" font-weight="800" fill="#e2e8f0">ChatGPT Rules Pt. 3</text>
    <text x="88" y="522" font-family="system-ui, -apple-system, sans-serif" font-size="28" font-weight="500" fill="#e2e8f0" opacity="0.84">Attention, language contracts, and control</text>
  </g>
</svg>