<svg xmlns="http://www.w3.org/2000/svg" viewBox="0 0 1400 1120" role="img" aria-labelledby="title desc">
  <title id="title">AldenGillespy.com v4 Implementation Complexity</title>
  <desc id="desc">Original editorial graphic showing many technical concerns held in a stable implementation grid.</desc>
  <rect width="1400" height="1120" fill="#061521"/>
  <g fill="#0b1220" stroke="#28445d" stroke-width="4">
    <rect x="130" y="130" width="230" height="180" rx="28"/>
    <rect x="420" y="130" width="230" height="180" rx="28"/>
    <rect x="710" y="130" width="230" height="180" rx="28"/>
    <rect x="1000" y="130" width="230" height="180" rx="28"/>
    <rect x="130" y="390" width="230" height="180" rx="28"/>
    <rect x="420" y="390" width="230" height="180" rx="28"/>
    <rect x="710" y="390" width="230" height="180" rx="28"/>
    <rect x="1000" y="390" width="230" height="180" rx="28"/>
  </g>
  <path d="M245 310v80M535 310v80M825 310v80M1115 310v80M360 220h60M650 220h60M940 220h60M360 480h60M650 480h60M940 480h60" stroke="#38bdf8" stroke-width="9" stroke-linecap="round" opacity=".62"/>
  <circle cx="700" cy="745" r="112" fill="#153226" stroke="#22c55e" stroke-width="5"/>
  <path d="M645 745h110M700 690v110" stroke="#22c55e" stroke-width="13" stroke-linecap="round"/>
  <path d="M210 220h70M500 220h70M790 220h70M1080 220h70M210 480h70M500 480h70M790 480h70M1080 480h70" stroke="#e2e8f0" stroke-width="14" stroke-linecap="round" opacity=".2"/>
  <text x="120" y="1010" fill="#e2e8f0" font-family="system-ui, sans-serif" font-size="58" font-weight="800">Complexity contained by stable rules</text>
</svg>
