<svg xmlns="http://www.w3.org/2000/svg" viewBox="0 0 1400 1120" role="img" aria-labelledby="title desc">
  <title id="title">AldenGillespy.com v4 System Design Decisions</title>
  <desc id="desc">Original editorial graphic showing typed content, routes, metadata, database records, and release automation.</desc>
  <rect width="1400" height="1120" fill="#07111f"/>
  <g stroke="#264159" stroke-width="4">
    <rect x="120" y="130" width="320" height="680" rx="34" fill="#0b1220"/>
    <rect x="540" y="130" width="320" height="680" rx="34" fill="#0f1f33"/>
    <rect x="960" y="130" width="320" height="680" rx="34" fill="#0b1220"/>
  </g>
  <path d="M440 300h100M860 300h100M440 520h100M860 520h100" stroke="#38bdf8" stroke-width="10" stroke-linecap="round" opacity=".7"/>
  <path d="M195 235h170M195 320h120M195 405h190M615 235h165M615 320h120M615 405h185M1035 235h165M1035 320h120M1035 405h185" stroke="#e2e8f0" stroke-width="16" stroke-linecap="round" opacity=".2"/>
  <rect x="600" y="570" width="200" height="128" rx="24" fill="#153226" stroke="#22c55e" stroke-width="4" opacity=".9"/>
  <path d="M640 634h120M700 594v80" stroke="#22c55e" stroke-width="10" stroke-linecap="round"/>
  <text x="182" y="745" fill="#e2e8f0" font-family="system-ui, sans-serif" font-size="30" font-weight="700">Content</text>
  <text x="625" y="745" fill="#e2e8f0" font-family="system-ui, sans-serif" font-size="30" font-weight="700">Routes</text>
  <text x="1035" y="745" fill="#e2e8f0" font-family="system-ui, sans-serif" font-size="30" font-weight="700">Release</text>
  <text x="120" y="1010" fill="#e2e8f0" font-family="system-ui, sans-serif" font-size="58" font-weight="800">Typed boundaries and repeatable release paths</text>
</svg>
