<svg xmlns="http://www.w3.org/2000/svg" viewBox="0 0 1400 1120" role="img" aria-labelledby="title desc">
  <title id="title">AldenGillespy.com v4 Role and Scope</title>
  <desc id="desc">Original editorial graphic showing product, frontend, backend, content, and release responsibilities.</desc>
  <rect width="1400" height="1120" fill="#061521"/>
  <circle cx="700" cy="500" r="210" fill="#0b1220" stroke="#38bdf8" stroke-width="6" opacity=".95"/>
  <g fill="#10233d" stroke="#28445d" stroke-width="4">
    <rect x="130" y="180" width="250" height="160" rx="28"/>
    <rect x="510" y="90" width="380" height="150" rx="28"/>
    <rect x="1010" y="195" width="250" height="160" rx="28"/>
    <rect x="165" y="690" width="300" height="170" rx="28"/>
    <rect x="935" y="690" width="300" height="170" rx="28"/>
  </g>
  <path d="M380 260l170 145M700 240v140M1010 275L850 405M465 760l110-120M935 760L825 640" stroke="#22c55e" stroke-width="10" stroke-linecap="round" opacity=".72"/>
  <path d="M608 470h184M608 535h142M608 600h210" stroke="#e2e8f0" stroke-width="18" stroke-linecap="round" opacity=".25"/>
  <text x="196" y="276" fill="#e2e8f0" font-family="system-ui, sans-serif" font-size="28" font-weight="700">Product</text>
  <text x="604" y="184" fill="#e2e8f0" font-family="system-ui, sans-serif" font-size="28" font-weight="700">Frontend</text>
  <text x="1083" y="291" fill="#e2e8f0" font-family="system-ui, sans-serif" font-size="28" font-weight="700">Backend</text>
  <text x="250" y="792" fill="#e2e8f0" font-family="system-ui, sans-serif" font-size="28" font-weight="700">Content</text>
  <text x="1022" y="792" fill="#e2e8f0" font-family="system-ui, sans-serif" font-size="28" font-weight="700">Release</text>
  <text x="120" y="1010" fill="#e2e8f0" font-family="system-ui, sans-serif" font-size="58" font-weight="800">Full-stack ownership map</text>
</svg>
