<svg width="1000" height="1250" viewBox="0 0 1000 1250" fill="none" xmlns="http://www.w3.org/2000/svg">
  <rect width="1000" height="1250" rx="48" fill="#F5F5F5"/>
  <rect x="52" y="52" width="896" height="1146" rx="40" fill="url(#bg)"/>
  <rect x="112" y="112" width="776" height="114" rx="28" fill="#FFFFFF" stroke="#101010" stroke-width="6"/>
  <rect x="156" y="150" width="252" height="38" rx="19" fill="#0F172A" fill-opacity="0.08"/>
  <rect x="112" y="280" width="354" height="358" rx="30" fill="#FFFFFF" stroke="#101010" stroke-width="6"/>
  <rect x="152" y="324" width="274" height="118" rx="22" fill="#E5DAC8"/>
  <rect x="152" y="470" width="126" height="126" rx="20" fill="#D8E4FF"/>
  <rect x="300" y="470" width="126" height="126" rx="20" fill="#FF7A00"/>
  <rect x="534" y="280" width="354" height="358" rx="30" fill="#FFFFFF" stroke="#111111" stroke-width="6"/>
  <rect x="574" y="324" width="274" height="118" rx="22" fill="#FF7A00"/>
  <rect x="574" y="470" width="126" height="126" rx="20" fill="#FDE68A"/>
  <rect x="722" y="470" width="126" height="126" rx="20" fill="#FFEDD5"/>
  <path d="M312 694C416 632 520 632 626 694" stroke="#0B3DD7" stroke-width="18" stroke-linecap="round"/>
  <path d="M626 694C694 654 760 654 828 694" stroke="#111111" stroke-width="18" stroke-linecap="round"/>
  <rect x="112" y="742" width="776" height="398" rx="30" fill="#FFFFFF" stroke="#101010" stroke-width="6"/>
  <rect x="154" y="792" width="226" height="102" rx="20" fill="#E5DAC8"/>
  <rect x="404" y="792" width="226" height="102" rx="20" fill="#FF7A00"/>
  <rect x="654" y="792" width="192" height="102" rx="20" fill="#EFE6D8"/>
  <path d="M154 956H846" stroke="#101010" stroke-width="8" stroke-linecap="round"/>
  <path d="M154 1018H846" stroke="#111111" stroke-width="8" stroke-linecap="round"/>
  <path d="M154 1080H610" stroke="#101010" stroke-width="8" stroke-linecap="round"/>
  <defs>
    <linearGradient id="bg" x1="76" y1="84" x2="920" y2="1166" gradientUnits="userSpaceOnUse">
      <stop stop-color="#F5F5F5"/>
      <stop offset="0.42" stop-color="#F5F5F5"/>
      <stop offset="1" stop-color="#F5F5F5"/>
    </linearGradient>
  </defs>
</svg>
