<svg xmlns="http://www.w3.org/2000/svg" viewBox="0 0 1200 675" width="1200" height="675" role="img" aria-labelledby="title desc">
  <title id="title">AldenGillespy.com v4.0</title>
  <desc id="desc">Typed content architecture, deployment operations, and a dual-discipline portfolio system</desc>
  <defs>
    <linearGradient id="site-v4-bg" x1="0%" y1="0%" x2="100%" y2="100%">
      <stop offset="0%" stop-color="#07111f" />
      <stop offset="52%" stop-color="#12253a" />
      <stop offset="100%" stop-color="#153226" />
    </linearGradient>
  </defs>
  <rect width="1200" height="675" fill="url(#site-v4-bg)" />
  <rect x="82" y="74" width="306" height="42" rx="21" fill="#08111f" opacity="0.88" />
  <text x="235" y="101" text-anchor="middle" font-family="system-ui, -apple-system, sans-serif" font-size="18" font-weight="700" fill="#e2e8f0" opacity="0.9">Engineering Case Study</text>
  <g opacity="0.95">
    <rect x="112" y="168" width="420" height="244" rx="26" fill="#0b1220" opacity="0.82" />
    <rect x="148" y="206" width="132" height="14" rx="7" fill="#38bdf8" opacity="0.72" />
    <rect x="148" y="246" width="308" height="12" rx="6" fill="#e2e8f0" opacity="0.18" />
    <rect x="148" y="278" width="250" height="12" rx="6" fill="#e2e8f0" opacity="0.18" />
    <rect x="148" y="326" width="108" height="42" rx="12" fill="#22c55e" opacity="0.64" />
    <rect x="282" y="326" width="108" height="42" rx="12" fill="#38bdf8" opacity="0.5" />
    <rect x="620" y="152" width="442" height="292" rx="28" fill="#0b1220" opacity="0.78" />
    <path d="M678 226H860M678 274H976M678 322H930M678 370H1010" stroke="#e2e8f0" stroke-width="14" stroke-linecap="round" opacity="0.2" />
    <circle cx="1000" cy="218" r="28" fill="#38bdf8" opacity="0.5" />
    <circle cx="1000" cy="304" r="28" fill="#22c55e" opacity="0.5" />
    <path d="M530 290H620" stroke="#38bdf8" stroke-width="8" stroke-linecap="round" stroke-dasharray="12 14" opacity="0.72" />
  </g>
  <text x="82" y="520" font-family="system-ui, -apple-system, sans-serif" font-size="58" font-weight="800" fill="#e2e8f0">AldenGillespy.com v4.0</text>
  <text x="82" y="590" font-family="system-ui, -apple-system, sans-serif" font-size="27" font-weight="500" fill="#e2e8f0" opacity="0.82">Typed content, full-stack delivery, and branch-aware releases</text>
</svg>
