<svg xmlns="http://www.w3.org/2000/svg" viewBox="0 0 1200 675" width="1200" height="675" role="img" aria-labelledby="title desc">
  <title id="title">Ancestry DNA Kit Activation</title>
  <desc id="desc">High-trust flow design with explicit state and calm validation</desc>
  <defs>
    <linearGradient id="grad-ancestry-dna-kit-activation" x1="0%" y1="0%" x2="100%" y2="100%">
      <stop offset="0%" stop-color="#07111f" />
      <stop offset="100%" stop-color="#10233d" />
    </linearGradient>
  </defs>
  <rect width="1200" height="675" fill="url(#grad-ancestry-dna-kit-activation)"/>
  <circle cx="140" cy="120" r="190" fill="#38bdf8" opacity="0.08"/>
  <circle cx="1080" cy="570" r="230" fill="#22c55e" opacity="0.08"/>
  <rect x="86" y="78" width="270" height="40" rx="20" fill="#0b1220" opacity="0.9"/>
  <text x="221" y="104" text-anchor="middle" font-family="system-ui, -apple-system, sans-serif" font-size="18" font-weight="700" fill="#e2e8f0" opacity="0.88">Engineering Case Study</text>
  
        <g opacity="0.94">
          <path d="M260 160V420" stroke="#38bdf8" stroke-width="8" stroke-dasharray="10 14" opacity="0.72"/>
          <path d="M600 160V420" stroke="#22c55e" stroke-width="8" stroke-dasharray="10 14" opacity="0.72"/>
          <path d="M940 160V420" stroke="#38bdf8" stroke-width="8" stroke-dasharray="10 14" opacity="0.72"/>
          <rect x="170" y="150" width="180" height="78" rx="20" fill="#0b1220" opacity="0.86"/>
          <rect x="510" y="240" width="180" height="78" rx="20" fill="#0b1220" opacity="0.86"/>
          <rect x="850" y="330" width="180" height="78" rx="20" fill="#0b1220" opacity="0.86"/>
          <circle cx="260" cy="188" r="18" fill="#38bdf8" opacity="0.7"/>
          <circle cx="600" cy="278" r="18" fill="#22c55e" opacity="0.7"/>
          <circle cx="940" cy="368" r="18" fill="#38bdf8" opacity="0.7"/>
        </g>
  <g>
    <text x="86" y="480" font-family="system-ui, -apple-system, sans-serif" font-size="56" font-weight="800" fill="#e2e8f0">Ancestry DNA Kit</text><text x="86" y="538" font-family="system-ui, -apple-system, sans-serif" font-size="56" font-weight="800" fill="#e2e8f0">Activation</text>
    <text x="86" y="620" font-family="system-ui, -apple-system, sans-serif" font-size="28" font-weight="500" fill="#e2e8f0" opacity="0.82">High-trust flow design with explicit state and calm validation</text>
  </g>
</svg>