<svg xmlns="http://www.w3.org/2000/svg" viewBox="0 0 1200 675" width="1200" height="675" role="img" aria-labelledby="title desc">
  <title id="title">Andacity Booking System</title>
  <desc id="desc">Canonical query contracts for dependable booking search</desc>
  <defs>
    <linearGradient id="grad-andacity-booking-system" x1="0%" y1="0%" x2="100%" y2="100%">
      <stop offset="0%" stop-color="#07111f" />
      <stop offset="100%" stop-color="#10233d" />
    </linearGradient>
  </defs>
  <rect width="1200" height="675" fill="url(#grad-andacity-booking-system)"/>
  <circle cx="140" cy="120" r="190" fill="#38bdf8" opacity="0.08"/>
  <circle cx="1080" cy="570" r="230" fill="#22c55e" opacity="0.08"/>
  <rect x="86" y="78" width="270" height="40" rx="20" fill="#0b1220" opacity="0.9"/>
  <text x="221" y="104" text-anchor="middle" font-family="system-ui, -apple-system, sans-serif" font-size="18" font-weight="700" fill="#e2e8f0" opacity="0.88">Engineering Case Study</text>
  
        <g opacity="0.9">
          <rect x="120" y="150" width="280" height="120" rx="20" fill="#38bdf8" opacity="0.14"/>
          <rect x="430" y="150" width="220" height="120" rx="20" fill="#22c55e" opacity="0.14"/>
          <rect x="680" y="150" width="400" height="120" rx="20" fill="#38bdf8" opacity="0.12"/>
          <rect x="120" y="300" width="460" height="150" rx="24" fill="#0b1220" opacity="0.78"/>
          <rect x="610" y="300" width="470" height="150" rx="24" fill="#0b1220" opacity="0.78"/>
          <path d="M220 210H330" stroke="#38bdf8" stroke-width="8" stroke-linecap="round" opacity="0.8"/>
          <path d="M520 210H590" stroke="#22c55e" stroke-width="8" stroke-linecap="round" opacity="0.8"/>
          <path d="M760 210H980" stroke="#38bdf8" stroke-width="8" stroke-linecap="round" opacity="0.75"/>
          <path d="M220 360H500" stroke="#e2e8f0" stroke-width="8" stroke-linecap="round" opacity="0.5"/>
          <path d="M220 400H420" stroke="#38bdf8" stroke-width="8" stroke-linecap="round" opacity="0.6"/>
          <path d="M710 360H980" stroke="#e2e8f0" stroke-width="8" stroke-linecap="round" opacity="0.5"/>
          <path d="M710 400H930" stroke="#22c55e" stroke-width="8" stroke-linecap="round" opacity="0.6"/>
        </g>
  <g>
    <text x="86" y="480" font-family="system-ui, -apple-system, sans-serif" font-size="56" font-weight="800" fill="#e2e8f0">Andacity Booking</text><text x="86" y="538" font-family="system-ui, -apple-system, sans-serif" font-size="56" font-weight="800" fill="#e2e8f0">System</text>
    <text x="86" y="620" font-family="system-ui, -apple-system, sans-serif" font-size="28" font-weight="500" fill="#e2e8f0" opacity="0.82">Canonical query contracts for dependable booking search</text>
  </g>
</svg>