<svg xmlns="http://www.w3.org/2000/svg" viewBox="0 0 1200 675" width="1200" height="675" role="img" aria-labelledby="title desc">
  <title id="title">Timeshare Search &amp; Rentals</title>
  <desc id="desc">Dense listings redesigned for comparison and trust</desc>
  <defs>
    <linearGradient id="grad-timeshare-search-rentals" x1="0%" y1="0%" x2="100%" y2="100%">
      <stop offset="0%" stop-color="#07111f" />
      <stop offset="100%" stop-color="#10233d" />
    </linearGradient>
  </defs>
  <rect width="1200" height="675" fill="url(#grad-timeshare-search-rentals)"/>
  <circle cx="140" cy="120" r="190" fill="#38bdf8" opacity="0.08"/>
  <circle cx="1080" cy="570" r="230" fill="#22c55e" opacity="0.08"/>
  <rect x="86" y="78" width="270" height="40" rx="20" fill="#0b1220" opacity="0.9"/>
  <text x="221" y="104" text-anchor="middle" font-family="system-ui, -apple-system, sans-serif" font-size="18" font-weight="700" fill="#e2e8f0" opacity="0.88">Engineering Case Study</text>
  
        <g opacity="0.92">
          <rect x="135" y="140" width="260" height="290" rx="28" fill="#0b1220" opacity="0.82"/>
          <rect x="425" y="140" width="260" height="290" rx="28" fill="#0b1220" opacity="0.82"/>
          <rect x="715" y="140" width="350" height="290" rx="28" fill="#0b1220" opacity="0.82"/>
          <path d="M180 190H310" stroke="#e2e8f0" stroke-width="8" stroke-linecap="round" opacity="0.6"/>
          <path d="M180 235H270" stroke="#38bdf8" stroke-width="8" stroke-linecap="round" opacity="0.75"/>
          <path d="M180 280H340" stroke="#e2e8f0" stroke-width="8" stroke-linecap="round" opacity="0.45"/>
          <path d="M470 190H600" stroke="#e2e8f0" stroke-width="8" stroke-linecap="round" opacity="0.6"/>
          <path d="M470 235H560" stroke="#22c55e" stroke-width="8" stroke-linecap="round" opacity="0.75"/>
          <path d="M470 280H640" stroke="#e2e8f0" stroke-width="8" stroke-linecap="round" opacity="0.45"/>
          <rect x="770" y="188" width="240" height="44" rx="22" fill="#38bdf8" opacity="0.18"/>
          <path d="M770 285H990" stroke="#e2e8f0" stroke-width="8" stroke-linecap="round" opacity="0.48"/>
          <path d="M770 330H960" stroke="#38bdf8" stroke-width="8" stroke-linecap="round" opacity="0.72"/>
        </g>
  <g>
    <text x="86" y="480" font-family="system-ui, -apple-system, sans-serif" font-size="56" font-weight="800" fill="#e2e8f0">Timeshare Search &amp;</text><text x="86" y="538" font-family="system-ui, -apple-system, sans-serif" font-size="56" font-weight="800" fill="#e2e8f0">Rentals</text>
    <text x="86" y="620" font-family="system-ui, -apple-system, sans-serif" font-size="28" font-weight="500" fill="#e2e8f0" opacity="0.82">Dense listings redesigned for comparison and trust</text>
  </g>
</svg>